<svg xmlns="http://www.w3.org/2000/svg" width="24" height="24" viewBox="0 0 24 24"><defs><linearGradient id="botGradient" x1="0%" x2="100%" y1="0%" y2="100%"><stop offset="0%" style="stop-color:#ff7a00;stop-opacity:1"/><stop offset="100%" style="stop-color:#e66a00;stop-opacity:1"/></linearGradient></defs><rect width="12" height="14" x="6" y="4" fill="url(#botGradient)" stroke="#E66A00" stroke-width=".5" rx="3" ry="3"/><circle cx="9" cy="8" r="1.5" fill="#fff"/><circle cx="15" cy="8" r="1.5" fill="#fff"/><circle cx="9" cy="8" r=".8" fill="#E66A00"/><circle cx="15" cy="8" r=".8" fill="#E66A00"/><rect width="4" height="2" x="10" y="12" fill="#fff" rx="1"/><line x1="10.5" x2="13.5" y1="13" y2="13" stroke="#E66A00" stroke-width=".5"/><line x1="12" x2="12" y1="4" y2="1" stroke="#FF7A00" stroke-linecap="round" stroke-width="1.5"/><circle cx="12" cy="1" r="1" fill="#FF9433"/><rect width="3" height="1.5" x="3" y="10" fill="#FF9433" rx=".75"/><rect width="3" height="1.5" x="18" y="10" fill="#FF9433" rx=".75"/><rect width="2" height="4" x="8" y="18" fill="#FF9433" rx="1"/><rect width="2" height="4" x="14" y="18" fill="#FF9433" rx="1"/><circle cx="16" cy="6" r="1" fill="#10B981" opacity=".8"/><path stroke="#fff" stroke-width=".5" d="M7 15 L9 15 M11 15 L13 15 M15 15 L17 15" opacity=".6"/></svg>