<svg width="24" height="24" viewBox="0 0 24 24" fill="none" xmlns="http://www.w3.org/2000/svg">
  <path d="M4 6.5C4 4.567 5.567 3 7.5 3H13C15.209 3 17 4.791 17 7C17 8.077 16.574 9.055 15.881 9.775C18.235 10.209 20 12.258 20 14.75C20 17.649 17.649 20 14.75 20H7.5C5.567 20 4 18.433 4 16.5V6.5Z" fill="currentColor"/>
  <path d="M8 8.75C8 8.336 8.336 8 8.75 8H12.75C13.44 8 14 8.56 14 9.25C14 9.94 13.44 10.5 12.75 10.5H8V8.75Z" fill="white"/>
  <path d="M8 13.25H14.5C15.328 13.25 16 13.922 16 14.75C16 15.578 15.328 16.25 14.5 16.25H8V13.25Z" fill="white"/>
</svg>
