<svg width="81" height="81" viewBox="0 0 81 81" fill="none" xmlns="http://www.w3.org/2000/svg">
<path d="M40.5 60.1974C39.0656 60.1974 37.8641 59.6982 36.8955 58.6996C35.9235 57.7046 35.4375 56.4703 35.4375 54.9968V17.8122L25.9453 27.5634C24.9328 28.6035 23.7516 29.1236 22.4016 29.1236C21.0516 29.1236 19.8281 28.5602 18.7312 27.4334C17.7187 26.3933 17.2344 25.1572 17.2783 23.7253C17.3188 22.2969 17.8031 21.1059 18.7312 20.1525L36.9563 1.43017C37.4625 0.91011 38.0109 0.540866 38.6016 0.322439C39.1922 0.107479 39.825 0 40.5 0C41.175 0 41.8078 0.107479 42.3984 0.322439C42.9891 0.540866 43.5375 0.91011 44.0437 1.43017L62.2687 20.1525C63.2812 21.1926 63.7656 22.4269 63.7217 23.8553C63.6812 25.2873 63.1969 26.4799 62.2687 27.4334C61.2562 28.4735 60.0548 29.0144 58.6643 29.056C57.2704 29.1011 56.0672 28.6035 55.0547 27.5634L45.5625 17.8122V54.9968C45.5625 56.4703 45.0782 57.7046 44.1096 58.6996C43.1376 59.6982 41.9344 60.1974 40.5 60.1974ZM10.125 81C7.34062 81 4.95787 79.9824 2.97675 77.9472C0.992249 75.9086 0 73.4591 0 70.5987V60.1974C0 58.7239 0.484313 57.4879 1.45294 56.4894C2.42494 55.4943 3.62813 54.9968 5.0625 54.9968C6.49687 54.9968 7.70006 55.4943 8.67206 56.4894C9.64069 57.4879 10.125 58.7239 10.125 60.1974V70.5987H70.875V60.1974C70.875 58.7239 71.361 57.4879 72.333 56.4894C73.3016 55.4943 74.5031 54.9968 75.9375 54.9968C77.3719 54.9968 78.5734 55.4943 79.542 56.4894C80.514 57.4879 81 58.7239 81 60.1974V70.5987C81 73.4591 80.0094 75.9086 78.0283 77.9472C76.0438 79.9824 73.6594 81 70.875 81H10.125Z" fill="#56565A"/>
</svg>
