<svg width="32" height="40" viewBox="0 0 32 40" fill="none" xmlns="http://www.w3.org/2000/svg">
<path d="M7.42773 38.2861H9.79004V40H6.57031C6.09706 39.9999 5.71387 39.6159 5.71387 39.1426V36.1982H7.42773V38.2861ZM22.0762 40H15.6367V38.2861H22.0762V40ZM32 39.1426C32 39.6159 31.6159 40 31.1426 40H27.9229V38.2861H30.2861V36.1982H32V39.1426ZM24.3994 0C25.439 0.000241172 26.2822 0.843104 26.2822 1.88281V32.3994C26.2822 33.4391 25.439 34.282 24.3994 34.2822H1.88281C0.842996 34.2822 5.35973e-05 33.4393 0 32.3994V1.88281C5.33396e-05 0.842958 0.842996 4.57427e-06 1.88281 0H24.3994ZM32 31.2305H30.2861V25.3408H32V31.2305ZM32 20.373H30.2861V14.4834H32V20.373ZM11.2969 20.0752H12.2158V19.2363C12.4288 19.5291 12.6983 19.7522 13.0244 19.9053C13.3507 20.0584 13.7107 20.1348 14.1035 20.1348C14.616 20.1348 15.0754 20.0221 15.4814 19.7959C15.8876 19.5695 16.2043 19.2528 16.4307 18.8467C16.6637 18.434 16.7802 17.9612 16.7803 17.4287C16.7803 16.896 16.6637 16.4257 16.4307 16.0195C16.2043 15.6135 15.8875 15.2976 15.4814 15.0713C15.0753 14.845 14.6161 14.7315 14.1035 14.7314C13.724 14.7314 13.3743 14.8047 13.0547 14.9512C12.7352 15.0909 12.4689 15.3006 12.2559 15.5801V12.6641H11.2969V20.0752ZM6.67676 14.7305C6.16413 14.7305 5.70495 14.844 5.29883 15.0703C4.89278 15.2966 4.57288 15.6126 4.33984 16.0186C4.11351 16.4246 4.00006 16.8943 4 17.4268C4 17.9594 4.11345 18.4329 4.33984 18.8457C4.57288 19.2517 4.89275 19.5676 5.29883 19.7939C5.70497 20.0203 6.16411 20.1338 6.67676 20.1338C7.06961 20.1338 7.42959 20.0574 7.75586 19.9043C8.08191 19.7512 8.35147 19.5281 8.56445 19.2354V20.0742H9.4834V14.7803H8.52441V15.5791C8.31139 15.2996 8.04506 15.09 7.72559 14.9502C7.40597 14.8037 7.0563 14.7305 6.67676 14.7305ZM20.4141 14.7305C19.8748 14.7305 19.3919 14.8471 18.9658 15.0801C18.5463 15.3065 18.2163 15.6262 17.9766 16.0391C17.737 16.4451 17.6173 16.9077 17.6172 17.4268C17.6172 17.946 17.737 18.4124 17.9766 18.8252C18.2163 19.2314 18.5463 19.5511 18.9658 19.7842C19.3919 20.0172 19.8748 20.1338 20.4141 20.1338C20.8933 20.1338 21.3196 20.0378 21.6924 19.8447C22.0719 19.645 22.3649 19.3613 22.5713 18.9951L21.8418 18.5361C21.6754 18.789 21.4689 18.979 21.2227 19.1055C20.9765 19.2318 20.7036 19.2949 20.4043 19.2949C20.0581 19.2949 19.7445 19.2186 19.4648 19.0654C19.1918 18.9123 18.9752 18.6957 18.8154 18.416C18.6623 18.1297 18.5859 17.7996 18.5859 17.4268C18.586 17.0607 18.6623 16.7376 18.8154 16.458C18.9752 16.1718 19.1919 15.9519 19.4648 15.7988C19.7445 15.6457 20.0581 15.5693 20.4043 15.5693C20.7036 15.5694 20.9765 15.6324 21.2227 15.7588C21.4689 15.8852 21.6754 16.0753 21.8418 16.3281L22.5713 15.8594C22.3649 15.4932 22.0718 15.2136 21.6924 15.0205C21.3196 14.8274 20.8934 14.7305 20.4141 14.7305ZM14.0234 15.5703C14.363 15.5703 14.6663 15.6467 14.9326 15.7998C15.2054 15.9529 15.4182 16.1729 15.5713 16.459C15.7311 16.7386 15.8115 17.0625 15.8115 17.4287C15.8115 17.7948 15.731 18.121 15.5713 18.4072C15.4182 18.6867 15.2055 18.9067 14.9326 19.0664C14.6663 19.2196 14.363 19.2959 14.0234 19.2959C13.6906 19.2959 13.3872 19.2195 13.1143 19.0664C12.8414 18.9066 12.6287 18.6867 12.4756 18.4072C12.3225 18.121 12.2462 17.7948 12.2461 17.4287C12.2461 17.0625 12.3224 16.7386 12.4756 16.459C12.6287 16.1729 12.8414 15.9529 13.1143 15.7998C13.3872 15.6467 13.6906 15.5703 14.0234 15.5703ZM6.75684 15.5693C7.0897 15.5694 7.39306 15.6457 7.66602 15.7988C7.93882 15.9519 8.15159 16.1719 8.30469 16.458C8.45777 16.7376 8.53412 17.0607 8.53418 17.4268C8.53418 17.793 8.45784 18.1199 8.30469 18.4062C8.15159 18.6857 7.93883 18.9057 7.66602 19.0654C7.39306 19.2186 7.0897 19.2949 6.75684 19.2949C6.41732 19.2949 6.11085 19.2185 5.83789 19.0654C5.57156 18.9056 5.35805 18.6859 5.19824 18.4062C5.04509 18.1199 4.96875 17.793 4.96875 17.4268C4.96881 17.0607 5.04516 16.7376 5.19824 16.458C5.35804 16.1718 5.57159 15.9519 5.83789 15.7988C6.11083 15.6458 6.41735 15.5693 6.75684 15.5693ZM31.1426 5.71387C31.6157 5.71387 31.9998 6.09718 32 6.57031V9.51562H30.2861V7.42773H27.9229V5.71387H31.1426Z" fill="#56565A"/>
</svg>
