<svg width="50" height="41" viewBox="0 0 50 41" fill="none" xmlns="http://www.w3.org/2000/svg">
<path d="M4.47868 40.8667C3.24704 40.8667 2.19231 40.4286 1.31449 39.5522C0.438164 38.6744 0 37.6197 0 36.3881V5.03728C0 3.80564 0.438164 2.75091 1.31449 1.87309C2.19231 0.996758 3.24704 0.558594 4.47868 0.558594H15.6754V5.03728H4.47868V36.3881H35.8295V24.4076L40.3081 28.8863V36.3881C40.3081 37.6197 39.87 38.6744 38.9936 39.5522C38.1158 40.4286 37.0611 40.8667 35.8295 40.8667H4.47868ZM8.95737 31.9094C8.5095 31.9094 8.1736 31.7041 7.94966 31.2936C7.72573 30.883 7.76305 30.4911 8.06163 30.1179L12.5403 24.1277C12.7642 23.8291 13.0628 23.6798 13.436 23.6798C13.8093 23.6798 14.1078 23.8291 14.3318 24.1277L18.4746 29.67L24.2969 21.8883C24.5208 21.5897 24.8194 21.4405 25.1926 21.4405C25.5658 21.4405 25.8644 21.5897 26.0883 21.8883L32.2465 30.1179C32.5451 30.4911 32.5824 30.883 32.3585 31.2936C32.1345 31.7041 31.7986 31.9094 31.3508 31.9094H8.95737Z" fill="#56565A"/>
<path d="M41.8343 18.032C41.5563 18.3262 41.2091 18.4733 40.7927 18.4733C40.3752 18.4733 40.0148 18.3128 39.7116 17.9919C39.4083 17.6709 39.2567 17.2895 39.2567 16.8477C39.2567 16.4069 39.4083 16.0261 39.7116 15.7051L45.5869 9.48664L39.6737 3.22806C39.3957 2.93385 39.2628 2.56583 39.2749 2.12398C39.2881 1.6832 39.4336 1.31571 39.7116 1.02151C39.9896 0.727299 40.3433 0.580196 40.7729 0.580196C41.2025 0.580196 41.5563 0.727299 41.8343 1.02151L48.8089 8.40342C49.1122 8.72438 49.2638 9.09882 49.2638 9.52676C49.2638 9.9547 49.1122 10.3291 48.8089 10.6501L41.8343 18.032ZM27.5818 18.032L20.6072 10.6501C20.304 10.3291 20.1523 9.9547 20.1523 9.52676C20.1523 9.09882 20.304 8.72438 20.6072 8.40342L27.5818 1.02151C27.8598 0.727299 28.2136 0.573242 28.6432 0.559334C29.0728 0.546496 29.4392 0.700553 29.7424 1.02151C30.0457 1.34246 30.1973 1.72332 30.1973 2.1641C30.1973 2.60594 30.0457 2.98734 29.7424 3.3083L23.8292 9.56688L29.7424 15.8255C30.0204 16.1197 30.1533 16.4872 30.1412 16.9279C30.1281 17.3698 29.9825 17.7378 29.7045 18.032C29.4266 18.3262 29.0728 18.4733 28.6432 18.4733C28.2136 18.4733 27.8598 18.3262 27.5818 18.032Z" fill="#56565A"/>
<path d="M30.1978 2.16499C30.1978 1.83448 30.1125 1.53807 29.942 1.27494L29.743 1.02345C29.4399 0.702683 29.0744 0.547199 28.6451 0.559835C28.2156 0.573743 27.8603 0.729242 27.5823 1.02345L20.6085 8.40409L20.4094 8.65558C20.2389 8.91632 20.1536 9.20723 20.1536 9.52813L20.182 9.83867C20.2388 10.1397 20.381 10.4114 20.6085 10.6522L27.5823 18.0328C27.7909 18.2535 28.0429 18.391 28.3368 18.4461L28.6451 18.4746C28.9672 18.4744 29.2459 18.3907 29.4827 18.2253L29.7058 18.0328C29.9139 17.8124 30.0486 17.5509 30.1082 17.2477L30.1431 16.9285C30.1521 16.5978 30.0788 16.3084 29.9245 16.0603L29.743 15.8263L23.8297 9.5675L29.743 3.30871C29.9701 3.06832 30.1124 2.79467 30.1694 2.48646L30.1978 2.16499ZM49.265 9.52813C49.265 9.20723 49.1797 8.91632 49.0092 8.65558L48.8102 8.40409L41.8363 1.02345C41.6277 0.802657 41.3758 0.663041 41.0818 0.607946L40.7735 0.581704C40.3442 0.58187 39.9906 0.729408 39.7128 1.02345L39.5291 1.25744C39.3704 1.50553 39.2853 1.79515 39.2755 2.12562L39.2951 2.44272C39.3405 2.74638 39.4672 3.00935 39.6757 3.22999L45.5889 9.48877L39.7128 15.706L39.5138 15.9575C39.343 16.2208 39.258 16.5189 39.258 16.8497L39.2864 17.169C39.3433 17.4777 39.4854 17.7527 39.7128 17.9935C39.9402 18.234 40.1998 18.3837 40.4914 18.4439L40.7931 18.4746C41.1054 18.4746 41.3788 18.3907 41.6132 18.2253L41.8363 18.0328L48.8102 10.6522C49.0377 10.4114 49.1798 10.1397 49.2366 9.83867L49.265 9.52813ZM49.8249 9.52813C49.8248 10.0319 49.6636 10.4853 49.3569 10.8731L49.2169 11.0349L42.243 18.4177C41.8559 18.8274 41.3586 19.0344 40.7931 19.0344C40.2125 19.0342 39.708 18.8035 39.3061 18.3783C38.9545 18.0062 38.7516 17.5614 38.7069 17.064L38.6981 16.8497C38.6981 16.2657 38.9048 15.7458 39.3061 15.3211L44.8191 9.48658L39.2689 3.61269C38.8794 3.20037 38.7 2.68514 38.7156 2.11032V2.10813L38.7309 1.90038C38.784 1.42021 38.9726 0.991506 39.3061 0.638562C39.6967 0.225134 40.2008 0.0220407 40.7735 0.0218686C41.3465 0.0218686 41.8522 0.224958 42.243 0.638562L49.2169 8.0192L49.3569 8.18322C49.6635 8.57097 49.8249 9.02436 49.8249 9.52813ZM30.7577 2.16499C30.7577 2.67646 30.6001 3.13764 30.2919 3.52959L30.1497 3.6936L24.5995 9.5675L30.1497 15.4414L30.2875 15.601C30.582 15.9835 30.7166 16.4415 30.703 16.9438V16.946C30.6861 17.5113 30.4937 18.0143 30.1125 18.4177C29.7219 18.8311 29.2178 19.0342 28.6451 19.0344C28.1438 19.0344 27.6949 18.878 27.3287 18.562L27.1756 18.4177L20.2017 11.0349C19.804 10.6138 19.5938 10.1038 19.5938 9.52813C19.5938 8.95225 19.8037 8.44042 20.2017 8.0192L27.1756 0.638562L27.3265 0.49423C27.6878 0.180267 28.1297 0.01621 28.6255 0H28.6277L28.8463 0.00656057C29.3495 0.0428723 29.7913 0.259311 30.1497 0.638562C30.5509 1.06316 30.7576 1.58109 30.7577 2.16499Z" fill="#56565A"/>
</svg>
