<svg width="40" height="39" viewBox="0 0 40 39" fill="none" xmlns="http://www.w3.org/2000/svg">
<path d="M10 39C7.23333 39 4.87533 37.9997 2.926 35.9991C0.975333 33.9971 0 31.5763 0 28.7368C0 26.8211 0.45 25.0845 1.35 23.5273C2.25 21.9714 3.45 20.7487 4.95 19.8592C5.65 19.4487 6.33333 19.4576 7 19.8859C7.66667 20.3128 8 20.9026 8 21.6553C8 22.0316 7.92533 22.3737 7.776 22.6816C7.62533 22.9895 7.41667 23.2118 7.15 23.3487C6.21667 23.8618 5.45867 24.5974 4.876 25.5553C4.292 26.5132 4 27.5737 4 28.7368C4 30.4474 4.58333 31.9013 5.75 33.0987C6.91667 34.2961 8.33333 34.8947 10 34.8947C11.6667 34.8947 13.0833 34.2961 14.25 33.0987C15.4167 31.9013 16 30.4474 16 28.7368C16 28.1553 16.1587 27.6674 16.476 27.2733C16.792 26.8806 17.2333 26.6842 17.8 26.6842H27.75C28.0167 26.3763 28.342 26.1279 28.726 25.9391C29.1087 25.7516 29.5333 25.6579 30 25.6579C30.8333 25.6579 31.5413 25.9576 32.124 26.5569C32.708 27.1549 33 27.8816 33 28.7368C33 29.5921 32.708 30.3187 32.124 30.9167C31.5413 31.5161 30.8333 31.8158 30 31.8158C29.5333 31.8158 29.1087 31.7221 28.726 31.5346C28.342 31.3457 28.0167 31.0974 27.75 30.7895H19.8C19.3333 33.15 18.192 35.1089 16.376 36.6662C14.5587 38.2221 12.4333 39 10 39ZM10 31.8158C9.16667 31.8158 8.45867 31.5161 7.876 30.9167C7.292 30.3187 7 29.5921 7 28.7368C7 27.9842 7.23333 27.3342 7.7 26.7868C8.16667 26.2395 8.73333 25.8803 9.4 25.7092L14.1 17.7039C13.1333 16.7803 12.3753 15.6766 11.826 14.3931C11.2753 13.1108 11 11.7342 11 10.2632C11 7.42368 11.9753 5.00363 13.926 3.003C15.8753 1.001 18.2333 0 21 0C23.3333 0 25.392 0.726632 27.176 2.17989C28.9587 3.63453 30.1333 5.47368 30.7 7.69737C30.8667 8.34737 30.75 8.93716 30.35 9.46674C29.95 9.99768 29.4167 10.2632 28.75 10.2632C28.3167 10.2632 27.9087 10.1003 27.526 9.77463C27.142 9.45032 26.8833 9.04868 26.75 8.56974C26.3833 7.26974 25.6833 6.20032 24.65 5.36147C23.6167 4.524 22.4 4.10526 21 4.10526C19.3333 4.10526 17.9167 4.70395 16.75 5.90132C15.5833 7.09868 15 8.55263 15 10.2632C15 11.3921 15.2753 12.4266 15.826 13.3667C16.3753 14.3082 17.0833 15.0526 17.95 15.6C18.4167 15.8737 18.7087 16.2158 18.826 16.6263C18.942 17.0368 18.8833 17.4474 18.65 17.8579L12.85 27.8132C12.9167 27.9842 12.9587 28.1382 12.976 28.275C12.992 28.4118 13 28.5658 13 28.7368C13 29.5921 12.708 30.3187 12.124 30.9167C11.5413 31.5161 10.8333 31.8158 10 31.8158ZM30 39C29.1333 39 28.292 38.8885 27.476 38.6654C26.6587 38.4437 25.9 38.1447 25.2 37.7684C24.3 37.2553 23.9413 36.4766 24.124 35.4325C24.308 34.3898 24.9833 33.8684 26.15 33.8684C26.3167 33.8684 26.5 33.9026 26.7 33.9711C26.9 34.0395 27.0833 34.125 27.25 34.2276C27.6833 34.4671 28.1253 34.6382 28.576 34.7408C29.0253 34.8434 29.5 34.8947 30 34.8947C31.6667 34.8947 33.0833 34.2961 34.25 33.0987C35.4167 31.9013 36 30.4474 36 28.7368C36 27.0263 35.4167 25.5724 34.25 24.375C33.0833 23.1776 31.6667 22.5789 30 22.5789C29.6667 22.5789 29.35 22.6043 29.05 22.6549C28.75 22.7069 28.45 22.7842 28.15 22.8868C27.6167 23.0579 27.1167 23.0661 26.65 22.9115C26.1833 22.7582 25.8333 22.4934 25.6 22.1171L20.45 13.2908C19.75 13.1539 19.1667 12.8118 18.7 12.2645C18.2333 11.7171 18 11.05 18 10.2632C18 9.40789 18.292 8.68126 18.876 8.08326C19.4587 7.4839 20.1667 7.18421 21 7.18421C21.8333 7.18421 22.5413 7.4839 23.124 8.08326C23.708 8.68126 24 9.40789 24 10.2632V10.7004C24 10.8194 23.9667 10.9645 23.9 11.1355L28.25 18.6276C28.5167 18.5592 28.8 18.5161 29.1 18.4983C29.4 18.4819 29.7 18.4737 30 18.4737C32.7667 18.4737 35.1253 19.474 37.076 21.4746C39.0253 23.4766 40 25.8974 40 28.7368C40 31.5763 39.0253 33.9971 37.076 35.9991C35.1253 37.9997 32.7667 39 30 39Z" fill="#56565A"/>
</svg>
