<svg xmlns="http://www.w3.org/2000/svg" width="900" height="200" fill="none" viewBox="0 0 900 200"><defs><linearGradient id="bg" x1="0" x2="900" y1="0" y2="0" gradientUnits="userSpaceOnUse"><stop offset="0%" stop-color="#1e1a34"/><stop offset="50%" stop-color="#370b7a"/><stop offset="100%" stop-color="#5f2167"/></linearGradient><radialGradient id="star" cx="50%" cy="50%" r="50%"><stop offset="0%" stop-color="#fff" stop-opacity=".9"/><stop offset="100%" stop-color="#fff" stop-opacity="0"/></radialGradient><radialGradient id="logoGlow" cx="50%" cy="50%" r="50%"><stop offset="0%" stop-color="#41b6e6" stop-opacity=".15"/><stop offset="100%" stop-color="#41b6e6" stop-opacity="0"/></radialGradient><radialGradient id="nebula1" cx="30%" cy="60%" r="40%"><stop offset="0%" stop-color="#5f2167" stop-opacity=".3"/><stop offset="100%" stop-color="#5f2167" stop-opacity="0"/></radialGradient><radialGradient id="nebula2" cx="70%" cy="30%" r="35%"><stop offset="0%" stop-color="#41b6e6" stop-opacity=".08"/><stop offset="100%" stop-color="#41b6e6" stop-opacity="0"/></radialGradient></defs><rect width="900" height="200" fill="url(#bg)"/><ellipse cx="270" cy="120" fill="url(#nebula1)" rx="360" ry="80"/><ellipse cx="630" cy="60" fill="url(#nebula2)" rx="315" ry="70"/><circle cx="45" cy="30" r="1.2" fill="#fff" opacity=".8"/><circle cx="120" cy="155" r=".8" fill="#fff" opacity=".5"/><circle cx="180" cy="45" r="1" fill="#fff" opacity=".7"/><circle cx="250" cy="170" r=".6" fill="#fff" opacity=".4"/><circle cx="310" cy="25" r="1.4" fill="#fff" opacity=".9"/><circle cx="370" cy="90" r=".7" fill="#fff" opacity=".5"/><circle cx="400" cy="160" r="1" fill="#fff" opacity=".6"/><circle cx="460" cy="35" r=".9" fill="#fff" opacity=".7"/><circle cx="500" cy="140" r="1.3" fill="#fff" opacity=".8"/><circle cx="540" cy="70" r=".6" fill="#fff" opacity=".4"/><circle cx="580" cy="175" r="1.1" fill="#fff" opacity=".6"/><circle cx="620" cy="20" r=".8" fill="#fff" opacity=".5"/><circle cx="660" cy="110" r="1" fill="#fff" opacity=".7"/><circle cx="700" cy="50" r=".7" fill="#fff" opacity=".4"/><circle cx="730" cy="165" r="1.2" fill="#fff" opacity=".8"/><circle cx="780" cy="85" r=".5" fill="#fff" opacity=".3"/><circle cx="830" cy="30" r=".9" fill="#fff" opacity=".6"/><circle cx="860" cy="145" r="1.1" fill="#fff" opacity=".7"/><circle cx="150" cy="100" r=".8" fill="#fff" opacity=".5"/><circle cx="85" cy="75" r="1" fill="#fff" opacity=".6"/><circle cx="220" cy="130" r=".7" fill="#fff" opacity=".4"/><circle cx="430" cy="55" r="1.2" fill="#fff" opacity=".7"/><circle cx="750" cy="130" r=".9" fill="#fff" opacity=".5"/><circle cx="340" cy="140" r=".6" fill="#fff" opacity=".3"/><circle cx="160" cy="60" r="1.8" fill="url(#star)" opacity=".9"/><circle cx="490" cy="30" r="2" fill="url(#star)" opacity=".8"/><circle cx="680" cy="155" r="1.6" fill="url(#star)" opacity=".7"/><circle cx="820" cy="60" r="1.5" fill="url(#star)" opacity=".6"/><text x="60" y="112" fill="#FAFBF8" font-family="'Segoe UI', 'Helvetica Neue', Arial, sans-serif" font-size="48" font-weight="700" letter-spacing="1">RocketRide</text><text x="62" y="140" fill="#41b6e6" font-family="'Segoe UI', 'Helvetica Neue', Arial, sans-serif" font-size="16" font-weight="400" letter-spacing="2" opacity=".9">PYTHON SDK</text><circle cx="810" cy="100" r="50" fill="url(#logoGlow)"/><g><path fill="#FAFBF8" d="M159.5 161.424L153.7 167.224C151.9 169.024 148.9 169.024 147 167.224L126.6 146.824C115.6 135.824 115.6 118.024 126.6 107.024C138.1 95.5245 138.1 76.9245 126.6 65.4245L125.1 63.9245C113.6 52.4245 95 52.4245 83.5 63.9245C72.5 74.9245 54.6 74.9245 43.6 63.9245L23.2 43.5245C21.4 41.7245 21.4 38.7245 23.2 36.8245L29 31.0245C37 23.0245 49.1 20.5245 59.6 24.9245L87.5 36.3245C97.3 40.1245 108.4 38.0245 116.3 31.1245L137 10.4245C138.6 8.92449 140.4 7.42449 142.5 6.22449C146.2 4.12449 150.3 3.02449 154.5 2.62449L185.4 0.0244895C188.3 -0.275511 190.8 2.22449 190.5 5.12449L187.8 36.4245C187.3 42.8245 184.5 48.8245 180.1 53.5245L160.5 73.1245C152.5 81.2245 150.1 93.3245 154.5 103.824L155.5 106.224L161.2 120.024L165.6 130.924C169.9 141.424 167.5 153.524 159.5 161.524V161.424Z" transform="translate(770, 58) scale(0.435)"/><path fill="#F93822" d="M0.799997 190.325C-0.200003 189.325 -0.300003 187.625 0.599997 186.425L21.1 162.024C31.1 150.024 37.9 137.725 41.3 125.325C43.6 116.625 44.6 108.525 44.1 101.225C44.1 100.325 44.4 99.4245 45.1 98.8245C45.8 98.2245 46.8 97.9245 47.7 98.1245C65 101.625 83.5 98.3245 98.5 88.9245C99.6 88.2245 101.1 88.4245 102 89.3245C102.9 90.2245 103.1 91.7245 102.4 92.8245C93 107.825 89.7 126.325 93.2 143.525C93.4 144.325 93.2 145.225 92.6 145.925C92 146.625 91 147.225 90.1 147.125C82.8 146.625 74.6 147.525 66 149.925C53.6 153.225 41.2 160.025 29.3 170.125L4.9 190.625C3.8 191.525 2.1 191.525 0.999997 190.425H0.799997V190.325Z" transform="translate(770, 58) scale(0.435)"/></g></svg>